<?xml version="1.0" encoding="UTF-8"?>
<!DOCTYPE svg PUBLIC "-//W3C//DTD SVG 1.1//EN" "http://www.w3.org/Graphics/SVG/1.1/DTD/svg11.dtd">
<!-- Creator: CorelDRAW -->
<svg xmlns="http://www.w3.org/2000/svg" xml:space="preserve" width="730.018mm" height="406.69mm" version="1.1" style="shape-rendering:geometricPrecision; text-rendering:geometricPrecision; image-rendering:optimizeQuality; fill-rule:evenodd; clip-rule:evenodd"
viewBox="0 0 9612.03 5354.82"
 xmlns:xlink="http://www.w3.org/1999/xlink"
 xmlns:xodm="http://www.corel.com/coreldraw/odm/2003">
 <defs>
  <style type="text/css">
   <![CDATA[
    .fil1 {fill:white}
    .fil0 {fill:#18723F}
    .fil2 {fill:white;fill-rule:nonzero}
   ]]>
  </style>
 </defs>
 <g id="Слой_x0020_1">
  <metadata id="CorelCorpID_0Corel-Layer"/>
  <path class="fil0" d="M379.97 0l8852.1 0c208.98,0 379.97,170.99 379.97,379.97l0 4594.89c0,208.98 -170.98,379.97 -379.97,379.97l-8852.1 0c-208.98,0 -379.97,-170.99 -379.97,-379.97l0 -4594.89c0,-208.98 170.98,-379.97 379.97,-379.97z"/>
  <path class="fil1" d="M5079.87 3314.39l428.76 0 1.02 -1084.63 216.39 1084.54 428.28 0.1 0 -2188.62 -420.61 0c-4.64,0 -3.09,7.22 -3.06,12.22 0.98,167.42 0.01,337.65 0.01,505.14 0,173.81 0,347.63 0,521.44l-1.02 0c0,-5.52 -1.99,-11.94 -2.78,-16.57l-9.37 -48.68c-4.4,-21.86 -7.98,-43.16 -12.38,-65.02 -25.86,-128.63 -49.17,-261.69 -75.03,-390.39 -25.8,-128.44 -48.91,-261.28 -74.85,-389.56 -6.54,-32.37 -18.01,-88.58 -23.4,-122.24 -0.47,-2.96 -0.28,-6.34 -3.84,-6.34l-448.11 0 0 2188.62zm-3638.87 -1653.94c0,50.89 1.51,81.78 9.91,130.64 5.34,31.1 13.64,58.55 22.56,85.4 8.03,24.2 19.86,53.31 32.04,75.91l40.2 67.76c14.96,22.43 33.75,48.73 52.4,68.79 2.56,2.75 3.71,4.58 6.1,7.14l39.72 41.75c4.66,4.66 8.58,8.58 13.24,13.24l41.76 39.72c18.15,18.17 37.91,34.85 56.01,52.96 15.68,15.68 32.32,30.12 47.86,45.84 3,3.03 4.75,3.91 7.66,6.6 4.74,4.38 8.51,8.75 13.2,13.27l28.04 25.93c4.57,4.59 9,9.58 13.74,13.76 2.87,2.53 4.26,3.2 7.13,6.11 22.26,22.51 45.23,44.55 66.69,67.75l26.51 28.48c2.6,2.68 3.9,4.76 6.6,7.66 15.06,16.19 28.17,34.74 41,52.69 1.23,1.72 1.88,2.37 3,4.13 17.16,26.94 32.26,55.25 42.47,85.86 1.25,3.74 1.81,6.46 3.03,10.21 9.83,30.18 18.45,83.65 18.68,116.77l1.04 26.46c-0.05,8.92 1.03,16.37 1.03,26.47 0,28.52 -3.1,61.51 -10.83,87.96 -7.24,24.79 -22.27,44.4 -46.33,53.48 -29.74,11.22 -73.51,12.14 -101.94,-5.76 -16.05,-10.11 -25.01,-25.03 -32.65,-42.71 -9.16,-21.2 -16.01,-58.33 -16.04,-82.74l0.04 -274c0,-4.46 2.36,-22.4 -3.06,-22.4l-427.74 0c-2.35,0 -3.06,0.71 -3.06,3.05l-0.02 251.58 2.8 52.19c2.37,17.47 2.8,41.73 6.08,66.23 12.51,93.56 34.07,182.45 82.22,261l21.98 32c12.68,16.94 35.47,43.2 52.53,56.44 14.25,11.06 25.68,20.79 41.17,31.14 63.67,42.56 138.55,62.94 213.72,75.51 82.2,13.75 202.22,13.81 282.18,-2.27 18.91,-3.8 37.32,-9.04 56.09,-14.18l25.76 -8.86c8.47,-3.32 17.54,-6.7 25.17,-10.47 15.31,-7.57 31.13,-15.35 45.62,-24.65 28.2,-18.11 53.69,-39.7 75.8,-64.74 74.6,-84.42 114.15,-216.48 130.41,-327.89 3.64,-24.92 8.08,-53.34 8.87,-78.71 0.15,-4.66 0.66,-4.4 0.96,-8.21l2.08 -42.72c-0.05,-7.15 0.99,-10.16 1.07,-16.25 1.33,-107.73 -2.17,-200.38 -36.07,-302.13 -4.61,-13.84 -9.44,-25.29 -14.6,-38.36 -26.68,-67.49 -68.81,-134.13 -116.65,-187.86l-18.32 -21.4c-2.73,-2.92 -3.58,-3.99 -6.17,-7.07 -9.8,-11.71 -22.48,-22.56 -31.7,-34.5l-79.26 -78.59c-17.11,-17.17 -36.46,-34.24 -53.97,-51.95l-13.76 -12.72c-4.67,-4.67 -8.56,-8.57 -13.23,-13.26 -2.84,-2.86 -4.39,-3.53 -7.16,-6.08 -2.44,-2.26 -4.22,-4.24 -6.6,-6.63 -4.55,-4.55 -8.56,-8.94 -13.23,-13.25l-13.76 -12.72c-28.74,-28.74 -58.91,-55.53 -87.58,-84.53 -2.93,-2.96 -3.99,-3.57 -7.09,-6.15 -4.39,-3.67 -44.74,-44.06 -52.54,-53.38 -4.01,-4.79 -8.52,-8.86 -12.51,-13.97l-23.12 -29.84c-4.04,-5.4 -6.89,-10.04 -10.47,-16 -3.45,-5.73 -6.74,-11.12 -9.62,-16.86 -27.59,-55.09 -44.02,-127.04 -2.47,-180.72 28.73,-37.11 128.42,-43.78 158.99,17.07 4.52,8.99 8.69,21.2 9.46,33.31 2.15,33.96 1.65,117.21 0.99,158.9 -0.07,4.32 -1.01,8.09 3.11,8.09l439.97 0c4.97,0 3.06,-10.52 3.05,-15.27 -0,-5.9 0.43,-12.24 -0.43,-17.9 -1.57,-10.39 -0.31,-24.96 -1.45,-35.21 -1.29,-11.44 -0.06,-23.63 -1.76,-34.91 -0.69,-4.61 -1.08,-12.97 -1.38,-16.95 -0.51,-6.7 -0.57,-10.54 -1.26,-17.07 -9.26,-87.58 -27.19,-185.53 -67.04,-264.97 -12.06,-24.04 -24.81,-48.36 -41.03,-69.98 -2.83,-3.77 -4.86,-7.04 -7.72,-10.61 -2.75,-3.43 -5.19,-7.02 -8.06,-10.27 -6.09,-6.93 -10.72,-12.81 -17.29,-19.38 -6.32,-6.32 -11.88,-12.16 -18.31,-18.35 -2.26,-2.18 -2.84,-2.23 -5.07,-4.1 -1.94,-1.62 -2.74,-2.86 -4.68,-4.49 -70.2,-59.37 -159.58,-88.54 -250.06,-101.3l-66.43 -6.9c-28.27,-2.33 -56.16,-1.07 -84.48,-1.07 -80.97,0 -164.66,19.3 -235.6,54.66 -7.46,3.72 -14.18,7.52 -20.99,11.6 -23.22,13.92 -37.06,25.25 -57.09,40.68 -24.51,18.88 -58.35,59.53 -75.97,85.96 -4.44,6.66 -8.78,13.37 -12.58,20.01 -29.23,51.1 -50.06,106.53 -62.43,164.68 -12.29,57.79 -19.1,113.89 -19.1,176.44zm1193.61 1073.44c0,93.59 10.98,176.53 30.55,250.54 6.78,25.65 16.95,53.68 27.07,77.83 1.86,4.43 3.15,7.93 5.18,12.14 2.29,4.77 3.74,7.28 5.87,12.46 1.99,4.84 3.66,7.11 6.01,11.31 2.25,4.01 3.66,7.74 5.83,11.48l20.12 32.84c10.71,16.1 18.84,25.52 30.17,40.1 2.91,3.74 5.07,5.17 8.15,9.17 9.55,12.37 36.64,35.64 50.5,46.25 28.68,21.95 59.41,39.94 95.43,54.28 117.34,46.72 260.82,51.82 385.27,31.28 105.73,-17.45 204.44,-66.56 271.22,-149.4 93.05,-115.41 123.93,-278.87 123.93,-436.21l0 -1612.18 -425.71 0 0 1550.06c0,24.32 -1.05,45.55 -1.02,69.25 0.01,10.84 -0.82,24.02 -1.89,33.76 -0.54,4.97 -0.91,11.99 -1.14,16.18 -0.32,5.76 -0.59,11.05 -1.33,17 -5.66,45.74 -17.68,97.38 -64.49,113.73 -7.56,2.64 -30.92,5.76 -37.86,5.37 -27.22,-1.49 -51.22,-5.96 -69.06,-29.62 -4.77,-6.34 -9.85,-14.8 -13.33,-22.32 -15.74,-34 -20.63,-81.4 -21.69,-119.87l-1.05 -1618.26c0.01,-4.76 1.92,-15.28 -3.05,-15.28l-423.67 0 0 1608.11zm3714.23 580.5l904.37 0 0 -426.72 -458.3 0 0 -500.05 412.46 0 0 -412.47 -412.46 0 0 -425.7 429.78 0 0 -423.67 -875.86 0 0 2188.62zm1047.97 0l435.89 0 1.02 -1053.06c0,6.6 27.56,124.83 29.1,131.81l59.1 262.73c5.05,22.24 9.69,43.47 14.87,65.59 15.19,64.91 28.98,133.88 44.62,197.77 10.21,41.72 19.38,88.47 29.52,131.39 17.85,75.49 33.74,155.78 51.95,230.16l7.12 33.62 455.24 0 -8.56 -33.2c-2.95,-11.8 -5.77,-23.1 -8.55,-34.22 -5.79,-23.16 -11.04,-45.16 -16.91,-68.64l-259.71 -1040.84c-2.43,-9.61 -2.53,-7.22 -0.53,-16.61 2.44,-11.43 5.54,-22.54 8.48,-34.31 45.57,-182.11 88.23,-366.4 134.03,-548.33 28.72,-114.06 55.41,-229.76 83.92,-343.82 5.77,-23.08 11.61,-45.91 16.9,-68.64l-440.99 0c-4.15,17.82 -8.48,35.33 -12.62,53.57 -4.23,18.64 -8.19,36.83 -12.64,54.58l-37.89 162.74c-4.45,18.19 -7.94,36.06 -12.61,54.61 -13.24,52.63 -24.63,110.49 -37.89,162.74 -4.7,18.5 -8.17,36.35 -12.61,54.6 -12.96,53.29 -24.79,110.04 -37.89,162.74l-12.79 54.43c-6.85,32.55 -17.33,70.27 -23.58,101.69l-1.17 4.94c-0.83,2.29 -0.24,0.95 -0.97,2.09l0 -844.28c0,-9.53 1.99,-24.44 -3.05,-24.44l-430.8 0 0 2188.62zm-3529.9 0l443.02 0 0 -998.07c39.41,0 113.42,3.27 140.79,36.42 8.93,10.82 15.09,27.82 18.02,42.07 4.6,22.38 6.18,46.32 6.18,73.25l0 846.32 431.82 0 0 -843.26c0,-64.74 -13.91,-150.23 -47.81,-206.8 -14.95,-24.95 -34.48,-45.3 -59.32,-60.85 -3.52,-2.2 -5.79,-3.49 -9.56,-5.72 -14.28,-8.46 -53.31,-24.01 -67.65,-24.01 1.36,-1.18 1.58,-1.41 3.74,-2.38l32.2 -12.6c21.42,-9.17 46.33,-25.49 64.02,-39.86 9.63,-7.83 24.67,-22.81 32.01,-32.15 2.27,-2.89 3.65,-4.53 5.81,-7.43 10.77,-14.42 21.77,-31.62 28.82,-48.59 12.06,-29.05 17.92,-46.13 25.89,-77.99 13.4,-53.57 21.39,-127.76 21.39,-185.35 0,-9.26 0.3,-16.69 0.97,-24.5 0.72,-8.48 -0.98,-16.06 -0.97,-25.4l0.04 -38.74c-0.01,-5.89 -0.93,-6.94 -1.09,-12.15l-7.81 -121.53c-3.09,-24.01 -4.6,-43.05 -8.88,-68.52 -12.26,-72.96 -24.99,-133.89 -62.76,-196.94 -32.41,-54.1 -77.04,-97.93 -136.27,-122.41 -48.6,-20.1 -107.43,-31.43 -176.33,-31.43l-676.24 0 0 2188.62zm443.52 -1803.77l120.32 0c50.3,4.09 71.25,45.91 75.37,130.31l0 131.82c-8.67,90.64 -35.31,132.32 -74.17,140.79l-120.75 0 -0.77 -402.92z"/>
  <path class="fil2" d="M3701.35 3546.88l-11.61 84.37 -283.78 0 -31.01 222.28 250.35 0 -11.26 84.2 -251.73 0 -33.96 234.06 373.01 0 -12.65 84.2 -465.35 0 102.91 -709.11 375.08 0zm599.62 0l-346.15 715.18 -36.56 0 -138.08 -715.18 91.3 0 94.94 494.97 237.01 -494.97 97.54 0zm460.32 0l-11.61 84.37 -283.78 0 -31.01 222.28 250.35 0 -11.26 84.2 -251.73 0 -33.96 234.06 373.01 0 -12.65 84.2 -465.35 0 102.91 -709.11 375.08 0zm717.26 0l-99.97 709.11 -50.76 0 -352.74 -517.67 -72.59 517.67 -88.36 0 99.62 -709.11 48.17 0 354.29 521.83 73.63 -521.83 88.7 0zm589.4 0l-12.65 88.36 -199.58 0 -87.32 620.75 -97.88 0 87.32 -620.75 -199.59 0 12.82 -88.36 496.88 0zm407.14 18.88l-13.69 96.85c-37.94,-24.95 -79.35,-37.59 -124.4,-37.59 -37.94,0 -68.26,9.87 -90.78,29.45 -22.7,19.75 -34.13,45.56 -34.13,77.79 0,15.76 5.37,32.57 16.29,50.24 10.74,17.5 42.44,47.47 94.94,89.57 52.49,42.1 86.97,79 103.78,110.88 16.8,31.71 25.12,63.58 25.12,95.46 0,50.76 -19.06,94.59 -57.35,131.32 -38.29,36.9 -89.22,55.44 -152.81,55.44 -56.48,0 -113.65,-16.98 -171.52,-50.76l14.73 -104.12c64.62,45.04 120.06,67.57 166.49,67.57 24.95,0 48.68,-8.32 71.21,-24.6 22.52,-16.46 33.78,-38.64 33.78,-66.87 0,-17.85 -5.72,-36.38 -16.98,-55.79 -11.26,-19.23 -43.31,-50.42 -95.98,-93.38 -52.49,-42.97 -86.97,-80.21 -102.91,-111.92 -16.11,-31.53 -24.25,-63.06 -24.25,-94.07 0,-54.92 22.69,-100.83 68.09,-137.91 45.39,-37.08 98.75,-55.61 160.43,-55.61 42.97,0 86.28,9.36 129.94,28.07z"/>
 </g>
</svg>
