<?xml version="1.0" encoding="UTF-8"?>
<!DOCTYPE svg PUBLIC "-//W3C//DTD SVG 1.1//EN" "http://www.w3.org/Graphics/SVG/1.1/DTD/svg11.dtd">
<!-- Creator: CorelDRAW -->
<svg xmlns="http://www.w3.org/2000/svg" xml:space="preserve" width="48.4616mm" height="30.0936mm" version="1.1" style="shape-rendering:geometricPrecision; text-rendering:geometricPrecision; image-rendering:optimizeQuality; fill-rule:evenodd; clip-rule:evenodd"
viewBox="0 0 144.17 89.53"
 xmlns:xlink="http://www.w3.org/1999/xlink"
 xmlns:xodm="http://www.corel.com/coreldraw/odm/2003">
 <defs>
  <style type="text/css">
   <![CDATA[
    .fil0 {fill:#DBFF07}
    .fil1 {fill:#DBFF07;fill-rule:nonzero}
   ]]>
  </style>
 </defs>
 <g id="Слой_x0020_1">
  <metadata id="CorelCorpID_0Corel-Layer"/>
  <path class="fil0" d="M20.4 49.15l-5.9 0 -4.83 22.68c0,0.15 -0.01,0.31 -0.04,0.46 -0.03,0.15 -0.05,0.28 -0.08,0.38 -0.03,0.1 -0.04,0.18 -0.04,0.23 0,1.33 0.95,1.99 2.84,1.99 0.66,0 1.46,-0.13 2.38,-0.38l-0.92 6.97c-1.23,0.41 -2.68,0.61 -4.37,0.61 -2.61,0 -4.66,-0.63 -6.17,-1.88 -1.51,-1.25 -2.26,-3.03 -2.26,-5.33 0,-0.97 0.1,-1.84 0.31,-2.61l4.9 -23.14 -4.44 0 1.46 -6.9 4.83 0 2.99 -10.58 7.2 0 -2.22 10.58 5.82 0 -1.46 6.9zm-8.43 38.88c1.18,-3.47 3.29,-6.31 7.98,-5.95 3.7,0.29 6.5,3.5 6.64,7.27 2.28,-0.04 10.15,0.47 11.53,-0.08 -0.02,-0.01 -0.03,-3.53 -0.04,-8.91 -0.39,-0.24 -0.75,-0.5 -1.1,-0.79 -2.02,-1.69 -3.03,-4.11 -3.03,-7.28 0,-1.18 0.15,-2.45 0.46,-3.83l3.37 -15.79c0.09,-0.44 0.2,-0.87 0.32,-1.29 0.02,-12.36 0.04,-23.52 0.04,-25.74l-37.81 0.05 -0.09 63.03c9.02,0 10.41,1.11 11.72,-0.7zm23.68 -50.6l-8.12 0 1.84 -8.89 8.12 0 -1.84 8.89zm-9.27 43.91l-8.28 0 8.28 -39.08 8.28 0 -8.28 39.08z"/>
  <path class="fil0" d="M26.54 0c-0.33,9.68 -14.43,9.59 -14.7,0l-11.84 -0 0.05 21.32 4.16 -10.38 3.02 0 4.34 10.92 3.16 0 0 -10.92 4.9 0c1.54,0 3.38,0.06 4.62,1.09 1.18,0.99 1.76,2.43 1.76,3.97 0,1.38 -0.53,3 -1.58,3.93 -1.3,1.13 -2.7,1.3 -4.38,1.3l-1.66 0 0 0.62 9.22 0 0 -10.92 4.9 0c1.54,0 3.38,0.06 4.62,1.09 0.53,0.45 0.94,0.99 1.23,1.59l0.02 -13.62 -11.86 -0zm4.75 21.86l7.08 0 0 -3.38c-0.26,0.56 -0.6,1.07 -1.04,1.46 -1.3,1.13 -2.7,1.3 -4.38,1.3l-1.66 0 0 0.62zm-23.99 -1.13l-3.14 0 1.54 -5.13 0.04 0 0.02 0 1.54 5.13zm15.06 -4.66c0,1.52 -1.13,1.8 -2.39,1.8l-1.56 0 0 -3.57 1.42 0c1.26,0 2.53,0.2 2.53,1.76zm12.89 0c0,1.52 -1.13,1.8 -2.39,1.8l-1.56 0 0 -3.57 1.42 0c1.26,0 2.53,0.2 2.53,1.76z"/>
  <path class="fil1" d="M46.69 82.1c-3.63,0 -6.45,-0.84 -8.47,-2.53 -2.02,-1.69 -3.03,-4.11 -3.03,-7.28 0,-1.18 0.15,-2.45 0.46,-3.83l3.37 -15.79c0.77,-3.58 2.22,-6.33 4.37,-8.28 2.15,-1.94 4.85,-2.91 8.12,-2.91 3.53,0 6.28,0.83 8.28,2.49 1.99,1.66 2.99,4.07 2.99,7.24 0,1.23 -0.15,2.53 -0.46,3.91l-0.31 1.3 -7.89 0 0.61 -2.91c0.15,-0.66 0.23,-1.25 0.23,-1.76 0,-2.04 -1.18,-3.07 -3.53,-3.07 -2.2,0 -3.58,1.35 -4.14,4.06l-3.68 17.32c-0.15,0.66 -0.23,1.28 -0.23,1.84 0,1.99 1.15,2.99 3.45,2.99 2.2,0 3.58,-1.35 4.14,-4.06l0.46 -2.15 7.97 0 -0.46 2.22c-0.77,3.58 -2.2,6.33 -4.29,8.28 -2.09,1.94 -4.75,2.91 -7.97,2.91zm39.62 -39.85l9.58 0 -12.34 14.94 4.29 24.14 -8.28 0 -2.76 -16.02 -4.67 5.75 -2.22 10.27 -8.28 0 11.42 -53.64 8.28 0 -6.36 29.73 11.34 -15.17zm22.22 -0.77c3.68,0 6.55,0.88 8.62,2.64 2.07,1.76 3.1,4.25 3.1,7.47 0,1.18 -0.15,2.45 -0.46,3.83l-1.69 8.12 -16.17 0 -1.3 6.05c-0.15,0.77 -0.23,1.43 -0.23,1.99 0,2.2 1.33,3.3 3.98,3.3 2.2,0 3.63,-1.48 4.29,-4.44l0.38 -1.76 7.89 0 -0.38 1.84c-0.77,3.73 -2.24,6.59 -4.41,8.58 -2.17,1.99 -4.92,2.99 -8.24,2.99 -3.78,0 -6.68,-0.88 -8.7,-2.64 -2.02,-1.76 -3.03,-4.25 -3.03,-7.47 0,-1.23 0.15,-2.55 0.46,-3.98l3.22 -15.1c0.77,-3.68 2.24,-6.5 4.41,-8.47 2.17,-1.97 4.92,-2.95 8.24,-2.95zm-4.37 11.57l-0.84 4.06 7.97 0 0.69 -3.3c0.15,-0.66 0.23,-1.25 0.23,-1.76 0,-2.25 -1.25,-3.37 -3.76,-3.37 -2.2,0 -3.63,1.46 -4.29,4.37zm38.55 -3.91l-5.9 0 -4.83 22.68c0,0.15 -0.01,0.31 -0.04,0.46 -0.03,0.15 -0.05,0.28 -0.08,0.38 -0.03,0.1 -0.04,0.18 -0.04,0.23 0,1.33 0.95,1.99 2.84,1.99 0.66,0 1.46,-0.13 2.38,-0.38l-0.92 6.97c-1.23,0.41 -2.68,0.61 -4.37,0.61 -2.61,0 -4.66,-0.63 -6.17,-1.88 -1.51,-1.25 -2.26,-3.03 -2.26,-5.33 0,-0.97 0.1,-1.84 0.31,-2.61l4.9 -23.14 -4.44 0 1.46 -6.9 4.83 0 2.99 -10.58 7.2 0 -2.22 10.58 5.82 0 -1.46 6.9z"/>
 </g>
</svg>
